<svg xmlns="http://www.w3.org/2000/svg" viewBox="0 0 800 600">
  <rect width="800" height="600" fill="#ffffff"/>
  
  <path d="M-100 150 C 100 50, 300 250, 500 150 C 700 50, 900 250, 1100 150" 
        stroke="#359d38" fill="none" stroke-width="3" opacity="0.1"/>
  <path d="M-100 300 C 100 200, 300 400, 500 300 C 700 200, 900 400, 1100 300" 
        stroke="#359d38" fill="none" stroke-width="3" opacity="0.1"/>
  <path d="M-100 450 C 100 350, 300 550, 500 450 C 700 350, 900 550, 1100 450" 
        stroke="#359d38" fill="none" stroke-width="3" opacity="0.1"/>
        
  <defs>
    <radialGradient id="circleGradient" cx="50%" cy="50%" r="50%">
      <stop offset="0%" style="stop-color:#359d38;stop-opacity:0.2"/>
      <stop offset="100%" style="stop-color:#359d38;stop-opacity:0"/>
    </radialGradient>
  </defs>

  <text x="400" y="100" font-family="Arial, sans-serif" font-size="50" font-weight="bold" 
      fill="#359d38" text-anchor="middle" opacity="0.07">Home</text>

  <text x="100" y="100" font-family="Arial, sans-serif" font-size="20" font-weight="bold" 
      fill="#359d38" text-anchor="middle" opacity="0.15">0101010
      0101010</text>

  <text x="650" y="110" font-family="Arial, sans-serif" font-size="20" font-weight="bold" 
      fill="#359d38" text-anchor="middle" opacity="0.15">0101010
      0101010</text>

  <text x="620" y="220" font-family="Arial, sans-serif" font-size="20" font-weight="bold" 
      fill="#359d38" text-anchor="middle" opacity="0.15">0101010
      0101010</text>

  <text x="350" y="50" font-family="Arial, sans-serif" font-size="20" font-weight="bold" 
      fill="#359d38" text-anchor="middle" opacity="0.15">0101010
      0101010</text>

  <text x="260" y="130" font-family="Arial, sans-serif" font-size="20" font-weight="bold" 
      fill="#359d38" text-anchor="middle" opacity="0.15">0101010
      0101010</text>

  <text x="200" y="280" font-family="Arial, sans-serif" font-size="20" font-weight="bold" 
      fill="#359d38" text-anchor="middle" opacity="0.15">0101010
      0101010</text>

  <text x="400" y="300" font-family="Arial, sans-serif" font-size="20" font-weight="bold" 
      fill="#359d38" text-anchor="middle" opacity="0.15">0101010
      0101010</text>

  <text x="690" y="330" font-family="Arial, sans-serif" font-size="20" font-weight="bold" 
      fill="#359d38" text-anchor="middle" opacity="0.15">0101010
      0101010</text>

  <text x="630" y="280" font-family="Arial, sans-serif" font-size="20" font-weight="bold" 
      fill="#359d38" text-anchor="middle" opacity="0.15">0101010
      0101010</text>

  <text x="320" y="360" font-family="Arial, sans-serif" font-size="20" font-weight="bold" 
      fill="#359d38" text-anchor="middle" opacity="0.15">0101010
      0101010</text>

  <text x="180" y="340" font-family="Arial, sans-serif" font-size="20" font-weight="bold" 
      fill="#359d38" text-anchor="middle" opacity="0.15">0101010
      0101010</text>

  <text x="490" y="340" font-family="Arial, sans-serif" font-size="20" font-weight="bold" 
      fill="#359d38" text-anchor="middle" opacity="0.15">0101010
      0101010</text>
  
  <g fill="#359d38" opacity="0.1">
    <path d="M100 250 L150 200 L200 250 V300 H100 Z" />
    <rect x="125" y="260" width="30" height="40" fill="#359d38" opacity="0.1"/>
    <rect x="110" y="230" width="20" height="20" fill="#359d38" opacity="0.1"/>
    <rect x="170" y="230" width="20" height="20" fill="#359d38" opacity="0.1"/>
    
    <path d="M600 250 L650 200 L700 250 V300 H600 Z" />
    <rect x="625" y="260" width="30" height="40" fill="#359d38" opacity="0.1"/>
    <rect x="610" y="230" width="20" height="20" fill="#359d38" opacity="0.1"/>
    <rect x="670" y="230" width="20" height="20" fill="#359d38" opacity="0.1"/>
    
    <path d="M300 450 L350 400 L400 450 V500 H300 Z" />
    <rect x="325" y="460" width="30" height="40" fill="#359d38" opacity="0.1"/>
    <rect x="310" y="430" width="20" height="20" fill="#359d38" opacity="0.1"/>
    <rect x="370" y="430" width="20" height="20" fill="#359d38" opacity="0.1"/>
    
    <path d="M500 450 L550 400 L600 450 V500 H500 Z" />
    <rect x="525" y="460" width="30" height="40" fill="#359d38" opacity="0.1"/>
    <rect x="510" y="430" width="20" height="20" fill="#359d38" opacity="0.1"/>
    <rect x="570" y="430" width="20" height="20" fill="#359d38" opacity="0.1"/>
    
    <path d="M50 150 L100 100 L150 150 V200 H50 Z" />
    <rect x="75" y="160" width="30" height="40" fill="#359d38" opacity="0.1"/>
    <rect x="60" y="130" width="20" height="20" fill="#359d38" opacity="0.1"/>
    <rect x="120" y="130" width="20" height="20" fill="#359d38" opacity="0.1"/>
    
    <path d="M700 150 L750 100 L800 150 V200 H700 Z" />
    <rect x="725" y="160" width="30" height="40" fill="#359d38" opacity="0.1"/>
    <rect x="710" y="130" width="20" height="20" fill="#359d38" opacity="0.1"/>
    <rect x="770" y="130" width="20" height="20" fill="#359d38" opacity="0.1"/>
  </g>
  
  <circle cx="150" cy="100" r="60" fill="url(#circleGradient)"/>
  <circle cx="650" cy="100" r="70" fill="url(#circleGradient)"/>
  <circle cx="150" cy="500" r="80" fill="url(#circleGradient)"/>
  <circle cx="650" cy="500" r="65" fill="url(#circleGradient)"/>
  <circle cx="400" cy="300" r="120" fill="url(#circleGradient)" opacity="0.5"/>
  
  <g fill="#359d38" opacity="0.15">
    <circle cx="200" cy="50" r="5"/>
    <circle cx="250" cy="50" r="5"/>
    <circle cx="300" cy="50" r="5"/>
    <circle cx="500" cy="50" r="5"/>
    <circle cx="550" cy="50" r="5"/>
    <circle cx="600" cy="50" r="5"/>
    
    <circle cx="200" cy="550" r="5"/>
    <circle cx="250" cy="550" r="5"/>
    <circle cx="300" cy="550" r="5"/>
    <circle cx="500" cy="550" r="5"/>
    <circle cx="550" cy="550" r="5"/>
    <circle cx="600" cy="550" r="5"/>
  </g>
  
  <g stroke="#359d38" stroke-width="2" opacity="0.1">
    <line x1="50" y1="300" x2="200" y2="300"/>
    <line x1="600" y1="300" x2="750" y2="300"/>
  </g>
</svg>